<svg width="64" height="73" viewBox="0 0 64 73" fill="none" xmlns="http://www.w3.org/2000/svg">
<g clip-path="url(#clip0_79_405)">
<path d="M7.67111 10.038L8.94462 12.3393C9.88566 14.0441 11.3014 15.4456 13.0235 16.3771L15.3482 17.6378L13.0235 18.8926C11.3028 19.826 9.88756 21.227 8.94462 22.9304L7.67111 25.2318L6.4036 22.9304C5.45905 21.2282 4.04423 19.8276 2.32476 18.8926L0 17.6378L2.32476 16.3771C4.04544 15.4437 5.46067 14.0427 6.4036 12.3393L7.67111 10.038Z" fill="#DFCEFD"/>
<path d="M10.4044 49.4111H22.1604L18.4419 41.9955L38.4877 28.6571L16.7239 0L26.029 25.0296L5.55664 38.7189L10.4044 49.4111Z" fill="#DFCEFD"/>
<path d="M36.4276 38.5286C37.5656 38.5286 38.4881 37.6154 38.4881 36.4889C38.4881 35.3624 37.5656 34.4492 36.4276 34.4492C35.2897 34.4492 34.3672 35.3624 34.3672 36.4889C34.3672 37.6154 35.2897 38.5286 36.4276 38.5286Z" fill="#DFCEFD"/>
<path d="M63.9637 52.0811L63.9277 72.9243H53.229L53.289 51.6054C53.4616 46.7643 52.153 41.9845 49.5346 37.8923C46.8742 33.7705 43.023 30.5362 38.4814 28.6095L42.6864 18.8807C49.2151 21.6283 54.747 26.2739 58.5497 32.2025C62.3524 38.1312 64.2467 45.0632 63.9817 52.0811H63.9637Z" fill="#DFCEFD"/>
<path d="M8.83008 72.9302V62.5235C12.3369 62.5204 15.6996 61.142 18.1821 58.69C20.6646 56.2381 22.0647 52.9123 22.0758 49.4408H32.5883C32.574 55.6714 30.0653 61.6423 25.6121 66.0452C21.1588 70.4481 15.124 72.924 8.83008 72.9302V72.9302Z" fill="#DFCEFD"/>
</g>
<defs>
<clipPath id="clip0_79_405">
<rect width="64" height="72.9302" fill="white"/>
</clipPath>
</defs>
</svg>
