<?xml version="1.0" standalone="no"?>
<!DOCTYPE svg PUBLIC "-//W3C//DTD SVG 20010904//EN"
 "http://www.w3.org/TR/2001/REC-SVG-20010904/DTD/svg10.dtd">
<svg version="1.0" xmlns="http://www.w3.org/2000/svg"
 width="300.000000pt" height="421.000000pt" viewBox="0 0 300.000000 421.000000"
 preserveAspectRatio="xMidYMid meet">
<metadata>
Created by potrace 1.10, written by Peter Selinger 2001-2011
</metadata>
<g transform="translate(0.000000,421.000000) scale(0.100000,-0.100000)"
fill="#000000" stroke="none">
<path d="M1542 4070 c0 -8 8 -37 18 -65 10 -27 18 -43 18 -35 0 8 -8 38 -18
65 -10 28 -18 43 -18 35z"/>
<path d="M1497 3930 c-3 -8 -17 -55 -32 -105 -31 -101 -71 -195 -115 -267 -27
-44 -28 -49 -13 -54 46 -15 94 -38 107 -53 8 -9 22 -63 32 -121 9 -58 20 -111
24 -118 3 -7 16 42 29 108 27 141 33 148 144 184 18 6 18 7 -1 34 -56 78 -118
226 -167 397 -1 6 -5 3 -8 -5z m123 -390 c0 -4 -17 -19 -38 -33 -20 -15 -45
-40 -55 -57 -19 -31 -37 -40 -37 -17 0 17 -56 74 -81 82 -27 9 -25 20 24 126
24 52 49 107 56 124 13 29 13 29 72 -94 32 -68 59 -127 59 -131z"/>
<path d="M1270 3576 c-36 -72 -66 -133 -68 -136 -1 -3 24 -11 55 -18 32 -7 69
-15 83 -18 19 -4 22 -3 10 5 -8 6 -39 15 -67 21 -29 6 -53 15 -53 20 0 4 25
63 56 130 31 67 54 123 53 124 -2 2 -33 -56 -69 -128z"/>
<path d="M1730 3577 c0 -5 11 -33 25 -63 14 -30 25 -59 25 -64 0 -5 -20 -12
-45 -16 -25 -3 -45 -11 -45 -16 0 -5 8 -7 18 -4 9 3 34 8 55 12 20 3 37 11 37
18 -1 14 -69 144 -70 133z"/>
<path d="M1645 3406 c-18 -13 -19 -27 -17 -202 2 -222 16 -462 42 -739 11
-110 22 -227 25 -260 13 -148 16 -184 25 -240 5 -33 15 -94 21 -135 14 -90 52
-249 67 -276 21 -39 113 -115 180 -149 75 -38 199 -61 273 -50 47 7 69 -6 69
-41 0 -56 -36 -96 -100 -108 -65 -14 -169 -57 -232 -98 -181 -116 -272 -230
-340 -425 -30 -87 -30 -91 -35 -333 -2 -135 -6 -255 -8 -267 -3 -14 -22 -30
-52 -45 l-46 -23 30 -3 c17 -2 48 5 69 15 l39 18 4 275 3 275 33 93 c46 128
110 227 192 297 122 104 201 147 348 189 73 21 82 27 102 62 16 28 23 55 23
97 l0 59 -82 -7 c-163 -13 -290 30 -399 134 l-59 56 -35 175 c-19 96 -42 240
-50 320 -9 80 -24 224 -35 320 -33 301 -60 703 -60 913 0 78 3 97 14 97 8 0
18 5 21 10 9 14 -8 12 -30 -4z"/>
<path d="M1366 3358 c-3 -18 -7 -114 -11 -213 -5 -183 -35 -627 -56 -830 -22
-228 -77 -553 -114 -679 -17 -58 -81 -143 -133 -179 -80 -56 -106 -62 -264
-62 l-147 0 6 -70 c5 -54 12 -77 32 -102 14 -18 33 -33 42 -33 32 0 192 -59
247 -92 90 -52 261 -229 305 -313 67 -131 76 -187 79 -479 l3 -259 37 -19 c21
-11 51 -18 69 -16 l32 3 -46 23 c-25 13 -48 31 -51 40 -2 9 -7 121 -11 247 -4
127 -9 246 -10 265 -8 78 -66 216 -122 289 -32 42 -146 157 -193 194 -59 46
-192 113 -254 127 -66 15 -103 38 -121 76 -16 35 -20 70 -7 78 4 3 55 6 112 7
168 3 265 40 344 132 55 65 69 97 96 219 51 225 75 377 90 563 27 341 27 344
35 490 3 66 8 140 11 165 6 64 15 460 9 460 -2 0 -6 -15 -9 -32z"/>
<path d="M0 3193 c1 -12 59 -119 60 -110 0 4 -12 30 -26 58 l-25 51 23 -7 c18
-5 20 -4 8 4 -17 12 -40 14 -40 4z"/>
<path d="M2960 3189 c-12 -8 -10 -9 8 -4 22 6 22 4 -12 -64 -20 -39 -36 -74
-36 -78 1 -9 79 138 80 150 0 10 -23 8 -40 -4z"/>
<path d="M149 3130 c94 -52 173 -113 242 -187 57 -63 108 -143 90 -143 -6 0
-43 9 -81 19 -39 11 -70 16 -70 10 0 -5 6 -9 14 -9 7 0 48 -12 91 -26 42 -14
79 -23 82 -21 9 10 -69 122 -125 180 -32 33 -82 78 -113 102 -55 43 -177 115
-195 115 -5 0 24 -18 65 -40z"/>
<path d="M2840 3135 c-35 -20 -71 -43 -80 -52 -13 -14 -13 -15 0 -6 8 6 49 29
90 52 41 22 71 41 65 41 -5 0 -39 -16 -75 -35z"/>
<path d="M2646 2989 c-75 -71 -175 -203 -163 -215 2 -3 39 7 82 21 43 14 84
25 91 25 8 0 14 5 14 10 0 12 7 13 -70 -10 -36 -11 -70 -20 -77 -20 -28 0 36
91 124 178 52 50 92 92 89 92 -2 0 -43 -36 -90 -81z"/>
<path d="M75 3033 c88 -210 163 -573 179 -858 3 -55 8 -146 11 -201 8 -151 8
-649 0 -808 l-8 -139 44 6 c65 9 202 83 266 143 l56 52 -7 134 c-27 494 -127
947 -297 1338 -43 99 -55 136 -46 142 8 5 7 8 -5 8 -10 0 -18 -4 -18 -10 0
-10 50 -141 75 -195 46 -103 125 -374 179 -615 26 -119 61 -367 70 -505 3 -44
8 -120 12 -170 6 -88 6 -91 -23 -130 -37 -49 -178 -136 -225 -138 l-33 -2 -1
260 c-1 344 -13 743 -24 830 -5 39 -12 102 -15 140 -3 39 -8 77 -10 85 -2 8
-7 35 -10 60 -9 63 -49 239 -80 343 -28 99 -84 247 -92 247 -3 0 -2 -8 2 -17z"/>
<path d="M2886 2960 c-14 -39 -26 -77 -26 -83 1 -7 14 24 30 67 17 44 28 81
26 83 -2 2 -15 -28 -30 -67z"/>
<path d="M2846 2849 c-59 -201 -92 -370 -121 -619 -21 -183 -29 -412 -27 -799
l1 -354 -36 6 c-42 7 -181 88 -220 129 -31 32 -32 42 -20 258 21 403 133 899
283 1255 33 77 44 119 23 82 -24 -41 -111 -254 -143 -351 -113 -337 -181 -708
-202 -1094 l-7 -134 56 -52 c64 -60 201 -134 266 -143 l44 -6 -7 138 c-17 308
-7 857 20 1130 13 132 66 428 94 524 5 19 8 37 5 39 -2 3 -6 -1 -9 -9z"/>
<path d="M1498 2290 c-3 -8 -11 -42 -18 -75 -28 -145 -144 -595 -194 -754
l-54 -174 68 -86 c102 -130 141 -210 197 -411 2 -8 19 32 38 87 52 156 100
241 196 354 l47 56 -24 74 c-61 186 -208 734 -247 924 -3 15 -5 16 -9 5z m67
-376 c30 -115 83 -302 117 -416 l61 -206 -52 -65 c-65 -83 -124 -183 -157
-269 -27 -70 -37 -77 -48 -32 -18 72 -105 226 -171 303 -25 29 -45 60 -45 69
0 9 14 60 31 112 50 158 106 356 149 530 44 182 48 195 55 188 3 -3 30 -99 60
-214z"/>
</g>
</svg>
